<mxfile host="app.diagrams.net" modified="2020-12-30T05:58:29.112Z" agent="5.0 (Macintosh; Intel Mac OS X 10_14_3) AppleWebKit/537.36 (KHTML, like Gecko) Chrome/87.0.4280.88 Safari/537.36" etag="6L5Ifbd7A2TjVHd3HC_9" version="13.7.1" type="github">
  <diagram id="Nr52sum9D_IwKXnU5lIt" name="第 1 页">
    <mxGraphModel dx="855" dy="484" grid="0" gridSize="10" guides="1" tooltips="1" connect="1" arrows="1" fold="1" page="1" pageScale="1" pageWidth="827" pageHeight="1169" math="0" shadow="0">
      <root>
        <mxCell id="0" />
        <mxCell id="1" parent="0" />
        <mxCell id="_SrstkT-f_wKJB8ZE9uE-2" value="2020-12-05 09:59:59" style="rounded=0;whiteSpace=wrap;html=1;" vertex="1" parent="1">
          <mxGeometry x="135" y="70" width="160" height="30" as="geometry" />
        </mxCell>
        <mxCell id="_SrstkT-f_wKJB8ZE9uE-3" value="FaceId" style="rounded=0;whiteSpace=wrap;html=1;" vertex="1" parent="1">
          <mxGeometry x="295" y="70" width="160" height="30" as="geometry" />
        </mxCell>
        <mxCell id="_SrstkT-f_wKJB8ZE9uE-4" value="2020-12-05 10:00:00" style="rounded=0;whiteSpace=wrap;html=1;fillColor=#ffe6cc;strokeColor=#d79b00;" vertex="1" parent="1">
          <mxGeometry x="135" y="100" width="160" height="30" as="geometry" />
        </mxCell>
        <mxCell id="_SrstkT-f_wKJB8ZE9uE-5" value="FaceId" style="rounded=0;whiteSpace=wrap;html=1;" vertex="1" parent="1">
          <mxGeometry x="295" y="100" width="160" height="30" as="geometry" />
        </mxCell>
        <mxCell id="_SrstkT-f_wKJB8ZE9uE-6" value="2020-12-05 10:00:00" style="rounded=0;whiteSpace=wrap;html=1;fillColor=#ffe6cc;strokeColor=#d79b00;" vertex="1" parent="1">
          <mxGeometry x="135" y="130" width="160" height="30" as="geometry" />
        </mxCell>
        <mxCell id="_SrstkT-f_wKJB8ZE9uE-7" value="FaceId" style="rounded=0;whiteSpace=wrap;html=1;" vertex="1" parent="1">
          <mxGeometry x="295" y="130" width="160" height="30" as="geometry" />
        </mxCell>
        <mxCell id="_SrstkT-f_wKJB8ZE9uE-8" value="2020-12-05 10:00:00" style="rounded=0;whiteSpace=wrap;html=1;fillColor=#ffe6cc;strokeColor=#d79b00;" vertex="1" parent="1">
          <mxGeometry x="135" y="160" width="160" height="30" as="geometry" />
        </mxCell>
        <mxCell id="_SrstkT-f_wKJB8ZE9uE-9" value="FaceId" style="rounded=0;whiteSpace=wrap;html=1;" vertex="1" parent="1">
          <mxGeometry x="295" y="160" width="160" height="30" as="geometry" />
        </mxCell>
        <mxCell id="_SrstkT-f_wKJB8ZE9uE-10" value="........." style="rounded=0;whiteSpace=wrap;html=1;fillColor=#ffe6cc;strokeColor=#d79b00;" vertex="1" parent="1">
          <mxGeometry x="135" y="190" width="160" height="30" as="geometry" />
        </mxCell>
        <mxCell id="_SrstkT-f_wKJB8ZE9uE-11" value=".........." style="rounded=0;whiteSpace=wrap;html=1;" vertex="1" parent="1">
          <mxGeometry x="295" y="190" width="160" height="30" as="geometry" />
        </mxCell>
        <mxCell id="_SrstkT-f_wKJB8ZE9uE-12" value="2020-12-05 10:00:00" style="rounded=0;whiteSpace=wrap;html=1;fillColor=#ffe6cc;strokeColor=#d79b00;" vertex="1" parent="1">
          <mxGeometry x="135" y="220" width="160" height="30" as="geometry" />
        </mxCell>
        <mxCell id="_SrstkT-f_wKJB8ZE9uE-13" value="FaceId" style="rounded=0;whiteSpace=wrap;html=1;" vertex="1" parent="1">
          <mxGeometry x="295" y="220" width="160" height="30" as="geometry" />
        </mxCell>
        <mxCell id="_SrstkT-f_wKJB8ZE9uE-14" value="2020-12-05 10:00:01" style="rounded=0;whiteSpace=wrap;html=1;" vertex="1" parent="1">
          <mxGeometry x="135" y="250" width="160" height="30" as="geometry" />
        </mxCell>
        <mxCell id="_SrstkT-f_wKJB8ZE9uE-15" value="FaceId" style="rounded=0;whiteSpace=wrap;html=1;" vertex="1" parent="1">
          <mxGeometry x="295" y="250" width="160" height="30" as="geometry" />
        </mxCell>
        <mxCell id="_SrstkT-f_wKJB8ZE9uE-16" value="" style="shape=curlyBracket;whiteSpace=wrap;html=1;rounded=1;rotation=-179;" vertex="1" parent="1">
          <mxGeometry x="474.52" y="115" width="20" height="115" as="geometry" />
        </mxCell>
        <mxCell id="_SrstkT-f_wKJB8ZE9uE-17" value="4000多条记录" style="text;html=1;strokeColor=none;fillColor=none;align=center;verticalAlign=middle;whiteSpace=wrap;rounded=0;" vertex="1" parent="1">
          <mxGeometry x="505" y="163" width="40" height="20" as="geometry" />
        </mxCell>
        <mxCell id="_SrstkT-f_wKJB8ZE9uE-19" value="" style="endArrow=classic;html=1;" edge="1" parent="1">
          <mxGeometry width="50" height="50" relative="1" as="geometry">
            <mxPoint x="95" y="90" as="sourcePoint" />
            <mxPoint x="95" y="250" as="targetPoint" />
          </mxGeometry>
        </mxCell>
        <mxCell id="_SrstkT-f_wKJB8ZE9uE-21" value="按update_time升序排" style="text;html=1;strokeColor=none;fillColor=none;align=center;verticalAlign=middle;whiteSpace=wrap;rounded=0;" vertex="1" parent="1">
          <mxGeometry x="21" y="102.5" width="80" height="140" as="geometry" />
        </mxCell>
        <mxCell id="_SrstkT-f_wKJB8ZE9uE-29" value="2020-12-05 09:59:59" style="rounded=0;whiteSpace=wrap;html=1;" vertex="1" parent="1">
          <mxGeometry x="135" y="343" width="160" height="30" as="geometry" />
        </mxCell>
        <mxCell id="_SrstkT-f_wKJB8ZE9uE-30" value="AAA-AAAA-0001" style="rounded=0;whiteSpace=wrap;html=1;" vertex="1" parent="1">
          <mxGeometry x="295" y="343" width="160" height="30" as="geometry" />
        </mxCell>
        <mxCell id="_SrstkT-f_wKJB8ZE9uE-31" value="2020-12-05 10:00:00" style="rounded=0;whiteSpace=wrap;html=1;fillColor=#ffe6cc;strokeColor=#d79b00;" vertex="1" parent="1">
          <mxGeometry x="135" y="373" width="160" height="30" as="geometry" />
        </mxCell>
        <mxCell id="_SrstkT-f_wKJB8ZE9uE-32" value="AAA-AAAA-0002" style="rounded=0;whiteSpace=wrap;html=1;fillColor=#ffe6cc;strokeColor=#d79b00;" vertex="1" parent="1">
          <mxGeometry x="295" y="373" width="160" height="30" as="geometry" />
        </mxCell>
        <mxCell id="_SrstkT-f_wKJB8ZE9uE-33" value="2020-12-05 10:00:00" style="rounded=0;whiteSpace=wrap;html=1;fillColor=#ffe6cc;strokeColor=#d79b00;" vertex="1" parent="1">
          <mxGeometry x="135" y="403" width="160" height="30" as="geometry" />
        </mxCell>
        <mxCell id="_SrstkT-f_wKJB8ZE9uE-34" value="AAA-AAAA-0003" style="rounded=0;whiteSpace=wrap;html=1;fillColor=#ffe6cc;strokeColor=#d79b00;" vertex="1" parent="1">
          <mxGeometry x="295" y="403" width="160" height="30" as="geometry" />
        </mxCell>
        <mxCell id="_SrstkT-f_wKJB8ZE9uE-35" value="2020-12-05 10:00:00" style="rounded=0;whiteSpace=wrap;html=1;fillColor=#ffe6cc;strokeColor=#d79b00;" vertex="1" parent="1">
          <mxGeometry x="135" y="433" width="160" height="30" as="geometry" />
        </mxCell>
        <mxCell id="_SrstkT-f_wKJB8ZE9uE-36" value="AAA-AAAA-0004" style="rounded=0;whiteSpace=wrap;html=1;fillColor=#ffe6cc;strokeColor=#d79b00;" vertex="1" parent="1">
          <mxGeometry x="295" y="433" width="160" height="30" as="geometry" />
        </mxCell>
        <mxCell id="_SrstkT-f_wKJB8ZE9uE-37" value="......" style="rounded=0;whiteSpace=wrap;html=1;fillColor=#ffe6cc;strokeColor=#d79b00;" vertex="1" parent="1">
          <mxGeometry x="135" y="463" width="160" height="30" as="geometry" />
        </mxCell>
        <mxCell id="_SrstkT-f_wKJB8ZE9uE-38" value="......" style="rounded=0;whiteSpace=wrap;html=1;fillColor=#ffe6cc;strokeColor=#d79b00;" vertex="1" parent="1">
          <mxGeometry x="295" y="463" width="160" height="30" as="geometry" />
        </mxCell>
        <mxCell id="_SrstkT-f_wKJB8ZE9uE-39" value="2020-12-05 10:00:00" style="rounded=0;whiteSpace=wrap;html=1;fillColor=#ffe6cc;strokeColor=#d79b00;" vertex="1" parent="1">
          <mxGeometry x="135" y="493" width="160" height="30" as="geometry" />
        </mxCell>
        <mxCell id="_SrstkT-f_wKJB8ZE9uE-40" value="AAA-AAAA-4009" style="rounded=0;whiteSpace=wrap;html=1;fillColor=#ffe6cc;strokeColor=#d79b00;" vertex="1" parent="1">
          <mxGeometry x="295" y="493" width="160" height="30" as="geometry" />
        </mxCell>
        <mxCell id="_SrstkT-f_wKJB8ZE9uE-41" value="2020-12-05 10:00:00" style="rounded=0;whiteSpace=wrap;html=1;fillColor=#ffe6cc;strokeColor=#d79b00;" vertex="1" parent="1">
          <mxGeometry x="135" y="523" width="160" height="30" as="geometry" />
        </mxCell>
        <mxCell id="_SrstkT-f_wKJB8ZE9uE-42" value="AAA-AAAA-4010" style="rounded=0;whiteSpace=wrap;html=1;fillColor=#ffe6cc;strokeColor=#d79b00;" vertex="1" parent="1">
          <mxGeometry x="295" y="523" width="160" height="30" as="geometry" />
        </mxCell>
        <mxCell id="_SrstkT-f_wKJB8ZE9uE-43" value="2020-12-05 10:00:01" style="rounded=0;whiteSpace=wrap;html=1;" vertex="1" parent="1">
          <mxGeometry x="135" y="553" width="160" height="30" as="geometry" />
        </mxCell>
        <mxCell id="_SrstkT-f_wKJB8ZE9uE-44" value="AAA-AAAA-0011" style="rounded=0;whiteSpace=wrap;html=1;" vertex="1" parent="1">
          <mxGeometry x="295" y="553" width="160" height="30" as="geometry" />
        </mxCell>
        <mxCell id="_SrstkT-f_wKJB8ZE9uE-45" value="" style="endArrow=classic;html=1;" edge="1" parent="1">
          <mxGeometry width="50" height="50" relative="1" as="geometry">
            <mxPoint x="126" y="373" as="sourcePoint" />
            <mxPoint x="126" y="571" as="targetPoint" />
          </mxGeometry>
        </mxCell>
        <mxCell id="_SrstkT-f_wKJB8ZE9uE-46" value="按update_time升序排" style="text;html=1;strokeColor=none;fillColor=none;align=center;verticalAlign=middle;whiteSpace=wrap;rounded=0;" vertex="1" parent="1">
          <mxGeometry x="52" y="385.5" width="80" height="140" as="geometry" />
        </mxCell>
        <mxCell id="_SrstkT-f_wKJB8ZE9uE-47" value="" style="endArrow=classic;html=1;" edge="1" parent="1">
          <mxGeometry width="50" height="50" relative="1" as="geometry">
            <mxPoint x="467" y="360" as="sourcePoint" />
            <mxPoint x="467" y="559" as="targetPoint" />
          </mxGeometry>
        </mxCell>
        <mxCell id="_SrstkT-f_wKJB8ZE9uE-48" value="按face_id升序排" style="text;html=1;strokeColor=none;fillColor=none;align=center;verticalAlign=middle;whiteSpace=wrap;rounded=0;" vertex="1" parent="1">
          <mxGeometry x="474.52" y="373" width="49.48" height="140" as="geometry" />
        </mxCell>
      </root>
    </mxGraphModel>
  </diagram>
</mxfile>
